<?xml version="1.0" standalone="no"?>
<!DOCTYPE svg PUBLIC "-//W3C//DTD SVG 1.1//EN" "http://www.w3.org/Graphics/SVG/1.1/DTD/svg11.dtd" >
<svg xmlns="http://www.w3.org/2000/svg">
<metadata></metadata>
<defs>
<font id="encode_sans_narrowmedium" horiz-adv-x="1185" >
<font-face units-per-em="2048" ascent="1638" descent="-410" />
<missing-glyph horiz-adv-x="440" />
<glyph unicode="&#xfb01;" horiz-adv-x="1269" d="M33 920v186h209v59q0 141 25.5 234.5t85 150t159.5 83t252 32.5l10 -164q-94 -6 -155.5 -22.5t-96.5 -50t-49 -90t-14 -142.5v-90h266v-186h-266v-920h-219v920h-207zM895 1446q0 66 30.5 96.5t98.5 30.5q131 0 131 -127t-131 -127q-68 0 -98.5 30.5t-30.5 96.5zM915 0 v1106h218v-1106h-218z" />
<glyph unicode="&#xfb02;" horiz-adv-x="1273" d="M33 920v186h209v59q0 141 25.5 234.5t85 150t159.5 83t252 32.5l10 -164q-94 -6 -155.5 -22.5t-96.5 -50t-49 -90t-14 -142.5v-90h266v-186h-266v-920h-219v920h-207zM913 0v1655h220v-1655h-220z" />
<glyph unicode="&#xfb03;" horiz-adv-x="2009" d="M33 920v186h209v59q0 141 25.5 234.5t85 150t159.5 83t252 32.5l10 -164q-94 -6 -155.5 -22.5t-96.5 -50t-49 -90t-14 -142.5v-90h266v-186h-266v-920h-219v920h-207zM772 920v186h209v59q0 141 25.5 234.5t85 150t160 83t251.5 32.5l10 -164q-94 -6 -155.5 -22.5 t-96 -50t-49 -90t-14.5 -142.5v-90h266v-186h-266v-920h-219v920h-207zM1632 1446q0 66 31 96.5t98 30.5q131 0 131 -127t-131 -127q-68 0 -98.5 30.5t-30.5 96.5zM1653 0v1106h217v-1106h-217z" />
<glyph unicode="&#xfb04;" horiz-adv-x="2011" d="M33 920v186h209v59q0 141 25.5 234.5t85 150t159.5 83t252 32.5l10 -164q-94 -6 -155.5 -22.5t-96.5 -50t-49 -90t-14 -142.5v-90h266v-186h-266v-920h-219v920h-207zM772 920v186h209v59q0 141 25.5 234.5t85 150t160 83t251.5 32.5l10 -164q-94 -6 -155.5 -22.5 t-96 -50t-49 -90t-14.5 -142.5v-90h266v-186h-266v-920h-219v920h-207zM1653 0v1655h219v-1655h-219z" />
<glyph horiz-adv-x="0" />
<glyph unicode="&#xd;" horiz-adv-x="591" />
<glyph horiz-adv-x="0" />
<glyph horiz-adv-x="0" />
<glyph unicode=" "  horiz-adv-x="440" />
<glyph unicode="&#x09;" horiz-adv-x="440" />
<glyph unicode="&#xa0;" horiz-adv-x="440" />
<glyph unicode="!" horiz-adv-x="522" d="M139 119q0 57 33 89t92 32t93 -32t34 -89t-34 -89t-93 -32t-92 31.5t-33 89.5zM150 1495v21h221v-21l-41 -1059v-24h-137v24z" />
<glyph unicode="&#x22;" horiz-adv-x="774" d="M125 983v672h182v-8l-67 -664h-115zM498 983v672h182v-8l-68 -664h-114z" />
<glyph unicode="#" horiz-adv-x="1144" d="M92 446v148h182l27 326h-209v149h221l37 447h158l-37 -447h240l37 447h159l-37 -447h181v-149h-193l-27 -326h218v-148h-230l-35 -446h-161l36 446h-239l-35 -446h-158l35 446h-170zM432 594h240l26 326h-239z" />
<glyph unicode="$" horiz-adv-x="1148" d="M82 43l6 186q106 -29 227 -48t215 -19q160 0 241 59.5t81 171.5q0 59 -22.5 102.5t-64.5 76t-100.5 55t-132.5 43.5q-109 31 -188.5 68.5t-132.5 90t-80 123t-27 166.5q0 166 101.5 274.5t281.5 139.5v283h199v-275q72 -4 150.5 -15.5t175.5 -33.5l-6 -184 q-94 25 -191.5 39t-175.5 14q-143 0 -224 -63.5t-81 -174.5q0 -53 18.5 -92t56 -70.5t98 -57t144.5 -52.5q98 -31 178 -66.5t135.5 -86t85 -121t29.5 -168.5q0 -176 -97 -284t-282 -136v-287h-196v276q-98 4 -211 20.5t-211 45.5z" />
<glyph unicode="%" horiz-adv-x="1947" d="M74 1055q0 238 94 359.5t274 121.5q182 0 276.5 -122t94.5 -359q0 -242 -94.5 -363t-276.5 -121q-180 0 -274 121t-94 363zM242 1055q0 -174 48 -254t152 -80t153.5 80t49.5 254q0 172 -50 251.5t-153 79.5q-102 0 -151 -79.5t-49 -251.5zM551 0l649 1516h191l-648 -1516 h-192zM1137 459q0 240 95 361.5t275 121.5t274.5 -122t94.5 -361q0 -240 -94.5 -361t-274.5 -121q-182 0 -276 121t-94 361zM1305 459q0 -174 49 -254t153 -80q102 0 151.5 80t49.5 254t-49 254t-152 80q-104 0 -153 -81t-49 -253z" />
<glyph unicode="&#x26;" horiz-adv-x="1439" d="M92 422q0 141 69.5 242.5t198.5 152.5q-66 78 -92 156t-26 172q0 193 121.5 294t351.5 101q84 0 173 -16.5t193 -53.5l2 -10l-32 -153h-13q-172 66 -305 65q-272 0 -272 -248q0 -66 22.5 -124t71.5 -114.5t127 -113.5t186 -121l199 -116q4 37 7 77.5t3 87.5v160h201v-158 q0 -152 -31 -274l170 -98v-17l-86 -157h-14l-146 88q-78 -131 -211 -199t-319 -68q-127 0 -228.5 31t-173 88.5t-109.5 140t-38 185.5zM315 432q0 -133 91.5 -211t246.5 -78q258 0 359 201l-238 148q-92 57 -163.5 107t-129.5 97q-166 -78 -166 -264z" />
<glyph unicode="'" horiz-adv-x="399" d="M125 983v672h182v-8l-67 -664h-115z" />
<glyph unicode="(" horiz-adv-x="618" d="M80 725q0 287 81 556t236 497h195v-9q-156 -225 -243 -491t-87 -553t87 -553t243 -491v-9h-195q-156 227 -236.5 496.5t-80.5 556.5z" />
<glyph unicode=")" horiz-adv-x="618" d="M29 -319q156 225 241.5 491t85.5 553t-86 553t-241 491v9h192q156 -227 237 -496.5t81 -556.5t-81 -556t-237 -497h-192v9z" />
<glyph unicode="*" horiz-adv-x="1005" d="M82 1348l43 135l154 -51l192 -103l-39 219v160h141v-160l-38 -219l192 103l154 51l43 -135l-154 -50l-217 -28l160 -152l94 -131l-113 -82l-96 131l-96 203l-96 -203l-95 -131l-114 82l96 131l158 152l-218 28z" />
<glyph unicode="+" horiz-adv-x="1007" d="M86 680v156h342v340h154v-340h342v-156h-342v-340h-154v340h-342z" />
<glyph unicode="," horiz-adv-x="481" d="M53 -297l90 541h226l-150 -561z" />
<glyph unicode="-" horiz-adv-x="888" d="M123 487v172h643v-172h-643z" />
<glyph unicode="." horiz-adv-x="481" d="M109 119q0 129 131 129q66 0 101.5 -32t35.5 -97q0 -127 -137 -127q-131 0 -131 127z" />
<glyph unicode="/" horiz-adv-x="755" d="M59 -246l445 1762h192l-444 -1762h-193z" />
<glyph unicode="0" horiz-adv-x="1308" d="M98 756q0 387 142.5 583.5t412.5 196.5q272 0 413.5 -196.5t141.5 -583.5t-141.5 -581.5t-413.5 -194.5q-270 0 -412.5 194.5t-142.5 581.5zM322 756q0 -307 80.5 -449.5t250.5 -142.5q168 0 251 142.5t83 449.5q0 309 -82 451.5t-252 142.5q-168 0 -249.5 -142.5 t-81.5 -451.5z" />
<glyph unicode="1" horiz-adv-x="817" d="M35 1231l2 18l434 267h166v-1516h-223v1264h-6l-316 -156h-22z" />
<glyph unicode="2" horiz-adv-x="1087" d="M84 2v211q0 100 25.5 179t77 144.5t127 124t175.5 115.5q145 86 210 161t65 175q0 233 -285 234q-76 0 -161 -13.5t-171 -38.5l-22 187q119 29 217 41t186 12q457 0 457 -401q0 -80 -20.5 -145.5t-63.5 -124t-107.5 -112t-152.5 -106.5q-86 -53 -146.5 -99t-98.5 -90 t-56 -90.5t-18 -99.5v-80h665v-184h-903z" />
<glyph unicode="3" horiz-adv-x="1038" d="M98 1503q70 16 154 24.5t156 8.5q244 0 369.5 -100.5t125.5 -296.5q0 -135 -64.5 -226.5t-183.5 -126.5v-10q139 -29 214 -125t75 -245q0 -205 -138 -314.5t-400 -111.5q-78 0 -159 7t-145 21v174h11q23 -6 54.5 -11t67 -9t71.5 -6t67 -2q178 0 261 66.5t83 201.5 q0 139 -83 204.5t-274 65.5h-106v164h104q166 0 242 62.5t76 191.5t-69.5 189.5t-223.5 60.5q-49 0 -118.5 -8.5t-147.5 -20.5h-13z" />
<glyph unicode="4" horiz-adv-x="1198" d="M39 473v12l502 1051h10l209 -25l8 -18l-496 -967v-10h457l59 485h158v-485h201v-172h-201v-344h-221v344h-649z" />
<glyph unicode="5" horiz-adv-x="1040" d="M98 8v176h47q125 -27 236 -26q176 0 263 69.5t87 225.5q0 76 -24.5 127t-79 82.5t-139.5 46t-205 14.5l-144 2l-16 16l57 775h709v-185h-539l-28 -436q166 -2 286.5 -26.5t199.5 -77t116 -137.5t37 -208t-40 -212t-114 -146t-176.5 -85t-227.5 -28q-72 0 -147.5 8.5 t-157.5 24.5z" />
<glyph unicode="6" horiz-adv-x="1220" d="M98 674q0 418 175.5 641t512.5 223q63 0 130 -8t143 -29l-21 -174q-74 18 -131 26.5t-114 8.5q-428 0 -471 -559q72 66 167 101.5t193 35.5q106 0 193.5 -30.5t148.5 -89t94 -141.5t33 -187q0 -117 -36 -212.5t-103.5 -163t-162.5 -103.5t-212 -36q-266 0 -402.5 175.5 t-136.5 521.5zM317 643q4 -254 82 -372.5t238 -118.5q135 0 212 89t77 248q0 141 -75 217t-216 76q-84 0 -171 -38.5t-147 -100.5z" />
<glyph unicode="7" horiz-adv-x="960" d="M45 1493l21 23h827l35 -121v-49l-500 -1348l-49 -31l-184 33v31l501 1292h-641z" />
<glyph unicode="8" horiz-adv-x="1212" d="M94 383q0 82 21.5 144.5t56.5 110.5t82 84t96 60q-92 51 -151.5 135t-59.5 228q0 92 34 164.5t96.5 122t150.5 76t194 26.5q213 0 337 -101.5t124 -289.5q0 -72 -16.5 -127t-45 -99.5t-68.5 -77t-85 -59.5q55 -25 103.5 -57.5t83 -77.5t54 -104.5t19.5 -137.5 q0 -197 -132 -305t-380 -108q-252 0 -383 101.5t-131 291.5zM303 406q0 -127 83 -193t222 -66q137 0 219 63.5t82 180.5q0 70 -24.5 118t-69.5 83t-105.5 58.5t-134.5 45.5l-61 19q-37 -18 -75 -45t-68.5 -64t-49 -86t-18.5 -114zM340 1133q0 -66 25.5 -112t70.5 -79 t106.5 -56.5t133.5 -43.5l14 -4q35 20 68 46.5t59.5 62.5t41.5 82t15 106q0 119 -72.5 180t-193.5 61t-194.5 -61t-73.5 -182z" />
<glyph unicode="9" horiz-adv-x="1222" d="M72 1024q0 117 35.5 212t103.5 162.5t163 103.5t212 36q266 0 402 -175t136 -521q0 -418 -175 -641.5t-513 -223.5q-63 0 -129.5 8.5t-142.5 28.5l20 174q74 -18 131.5 -26t114.5 -8q428 0 471 559q-72 -66 -167 -102t-193 -36q-109 0 -195 31t-147.5 89.5t-94 141.5 t-32.5 187zM297 1026q0 -141 75 -217t216 -76q84 0 171 39t146 100q-4 254 -82 373t-237 119q-135 0 -212 -89t-77 -249z" />
<glyph unicode=":" horiz-adv-x="501" d="M119 119q0 129 131 129q66 0 101.5 -32t35.5 -97q0 -127 -137 -127q-131 0 -131 127zM119 987q0 129 131 129q66 0 101.5 -31.5t35.5 -97.5q0 -127 -137 -127q-131 0 -131 127z" />
<glyph unicode=";" horiz-adv-x="544" d="M88 -297l90 541h225l-149 -561zM152 987q0 129 131 129q66 0 101.5 -31.5t35.5 -97.5q0 -127 -137 -127q-131 0 -131 127z" />
<glyph unicode="&#x3c;" horiz-adv-x="1060" d="M82 676v145l848 373v-170l-633 -276l629 -277v-168z" />
<glyph unicode="=" horiz-adv-x="1071" d="M129 424v160h813v-160h-813zM129 866v158h813v-158h-813z" />
<glyph unicode="&#x3e;" horiz-adv-x="1060" d="M131 1024v170l848 -373v-145l-844 -373v168l629 277z" />
<glyph unicode="?" horiz-adv-x="903" d="M61 1483q78 23 161 37t171 14q92 0 173 -22.5t141.5 -70.5t95.5 -124t35 -184q0 -100 -34 -173t-90.5 -124.5t-128 -82t-145.5 -48.5l-6 -277v-35h-151v35l-17 383q66 14 131.5 36.5t117.5 56.5t84 85t32 125q0 70 -22.5 116t-60.5 74.5t-88 41t-104 12.5 q-70 0 -142.5 -12.5t-133.5 -30.5zM238 115q0 57 32.5 89t91.5 32t92 -32t33 -89q0 -59 -33 -90t-92 -31q-125 0 -124 121z" />
<glyph unicode="@" horiz-adv-x="1748" d="M90 535q0 203 58.5 360.5t164 266t256 164.5t334.5 56q186 0 325.5 -52t231.5 -150.5t138.5 -238.5t46.5 -314q0 -244 -93.5 -382.5t-273.5 -138.5q-98 0 -154.5 47.5t-66.5 133.5h-8q-57 -86 -146.5 -128t-175.5 -42q-70 0 -121 26.5t-86 74.5t-52 113.5t-17 143.5 q0 117 34.5 214t99 169t155.5 112t204 40q133 0 307 -72l-75 -428q-6 -37 -12.5 -73t-6.5 -68q0 -63 27.5 -99.5t97.5 -36.5q104 0 159.5 103.5t55.5 290.5q0 289 -145.5 452.5t-448.5 163.5q-152 0 -274.5 -47t-210.5 -137t-135 -222t-47 -302q0 -176 47 -303.5t130 -210 t195.5 -121.5t241.5 -39q86 0 187.5 18.5t207.5 50.5l47 -129q-119 -35 -231.5 -56t-210.5 -21q-160 0 -298 48t-241.5 147t-162 253t-58.5 363zM594 475q0 -98 37 -164.5t123 -66.5q43 0 89 17.5t86 53t70.5 90t42.5 130.5l56 323q-41 12 -79 19.5t-73 7.5 q-80 0 -144.5 -31t-110.5 -86t-71.5 -130t-25.5 -163z" />
<glyph unicode="A" horiz-adv-x="1343" d="M10 0v14l496 1502h332l495 -1502v-14h-215l-143 428h-608l-142 -428h-215zM422 610h500l-160 480l-82 258h-18l-82 -258z" />
<glyph unicode="B" horiz-adv-x="1312" d="M162 10v1495q143 14 248.5 22.5t203.5 8.5q299 0 434.5 -99.5t135.5 -316.5q0 -135 -65.5 -224t-184.5 -118v-8q143 -27 220 -121t77 -246q0 -423 -592 -423q-113 0 -236.5 7t-240.5 23zM373 164q81 -17 274 -17q358 2 359 271q0 141 -84 204.5t-273 63.5h-276v-522z M373 846h266q174 0 246.5 59.5t72.5 202.5q0 137 -76.5 197.5t-252.5 60.5q-76 0 -136.5 -3t-119.5 -13v-504z" />
<glyph unicode="C" horiz-adv-x="1146" d="M92 756q0 401 165 590.5t507 189.5q66 0 145.5 -8t165.5 -23v-186q-86 16 -154.5 22.5t-127.5 6.5q-127 0 -216.5 -32t-145.5 -102.5t-82.5 -183t-26.5 -274.5q0 -158 26.5 -269.5t82.5 -182.5t143.5 -103.5t207.5 -32.5q29 0 68 2t79 7t79 10.5t67 11.5v-183 q-63 -16 -145 -26t-158 -10q-346 2 -513 190t-167 586z" />
<glyph unicode="D" horiz-adv-x="1421" d="M162 0v1509q117 12 226.5 19.5t186.5 7.5q393 0 574.5 -187.5t181.5 -592.5q0 -207 -46 -354.5t-144.5 -241.5t-251 -139.5t-365.5 -45.5q-102 0 -196.5 6.5t-165.5 18.5zM383 174q61 -8 110.5 -11t102.5 -3q133 0 228.5 33.5t156.5 105.5t91 185.5t30 273.5t-27.5 271.5 t-88 183t-156 104.5t-228.5 33q-49 0 -107.5 -3.5t-111.5 -11.5v-1161z" />
<glyph unicode="E" horiz-adv-x="1210" d="M162 0v1516h944v-185h-721v-473h659v-184h-659v-490h739v-184h-962z" />
<glyph unicode="F" horiz-adv-x="1150" d="M162 0v1516h928v-185h-705v-493h641v-185h-641v-653h-223z" />
<glyph unicode="G" horiz-adv-x="1304" d="M92 756q0 395 176 587.5t541 192.5q84 0 180 -11.5t187 -33.5v-184q-111 23 -194 32t-155 9q-137 0 -233 -33t-156.5 -104.5t-88 -183.5t-27.5 -271q0 -158 26.5 -268.5t82.5 -182.5t145.5 -104.5t214.5 -32.5q37 0 87 4t103 10v588h207v-735q-111 -27 -216.5 -41 t-191.5 -14q-352 2 -520 192t-168 584z" />
<glyph unicode="H" horiz-adv-x="1501" d="M162 0v1516h223v-648h733v648h221v-1516h-221v684h-733v-684h-223z" />
<glyph unicode="I" horiz-adv-x="544" d="M162 0v1516h223v-1516h-223z" />
<glyph unicode="J" horiz-adv-x="544" d="M4 -326q47 102 78 187.5t49.5 166.5t26.5 167t8 190v1131h223v-1145q0 -102 -12 -193.5t-41 -181.5t-75 -185.5t-111 -205.5z" />
<glyph unicode="K" horiz-adv-x="1331" d="M162 0v1516h223v-654h233l420 654h254l-446 -678l-76 -52v-14l82 -51l477 -721h-252l-446 678h-246v-678h-223z" />
<glyph unicode="L" horiz-adv-x="1030" d="M162 0v1516h223v-1334h619v-182h-842z" />
<glyph unicode="M" horiz-adv-x="1853" d="M162 0v1516h307l352 -906l99 -288h14l98 288l352 906h310v-1516h-207v1229h-12l-132 -357l-319 -806h-197l-319 806l-131 357h-12v-1229h-203z" />
<glyph unicode="N" horiz-adv-x="1529" d="M162 0v1516h190l692 -988l109 -176h14v1164h201v-1516h-190l-693 983l-110 178h-15v-1161h-198z" />
<glyph unicode="O" horiz-adv-x="1466" d="M92 756q0 389 163 584.5t478 195.5t478 -195.5t163 -584.5q0 -387 -163 -581.5t-478 -194.5t-478 194.5t-163 581.5zM319 756q0 -309 99.5 -449.5t314.5 -140.5t314.5 140t99.5 450q0 309 -101.5 451.5t-312.5 142.5q-213 0 -313.5 -141.5t-100.5 -452.5z" />
<glyph unicode="P" horiz-adv-x="1273" d="M162 0v1505q199 31 379 31q352 0 512.5 -126t160.5 -402q0 -274 -161.5 -402.5t-507.5 -128.5h-78t-82 4v-481h-223zM385 674q35 -6 90.5 -11.5t102.5 -5.5q111 0 188.5 19.5t126.5 61.5t71.5 108.5t22.5 161.5q0 184 -93 265t-312 81q-47 0 -101.5 -4t-95.5 -11v-665z " />
<glyph unicode="Q" horiz-adv-x="1462" d="M88 756q0 385 163 582.5t478 197.5q317 0 480 -197.5t163 -582.5q0 -344 -147.5 -527.5t-427.5 -191.5v-17q80 -20 148.5 -34.5t135 -25.5t134 -18.5t147.5 -13.5l-68 -186q-342 68 -573.5 146.5t-371.5 194.5t-200.5 277.5t-60.5 395.5zM313 756q0 -307 101.5 -449.5 t314.5 -142.5q215 0 316.5 142.5t101.5 449.5q0 309 -101.5 452.5t-316.5 143.5q-213 0 -314.5 -143.5t-101.5 -452.5z" />
<glyph unicode="R" horiz-adv-x="1308" d="M162 0v1505q193 31 379 31q352 0 512.5 -119t160.5 -379q0 -348 -305 -448l351 -590h-244l-305 549q-74 -6 -156 -6q-33 0 -82 2t-88 6v-551h-223zM385 735q33 -6 85.5 -10t107.5 -4q111 0 188.5 17.5t126.5 55t71.5 98t22.5 146.5q0 168 -94 242t-311 74q-43 0 -97.5 -4 t-99.5 -11v-604z" />
<glyph unicode="S" horiz-adv-x="1142" d="M78 43l6 186q106 -29 227 -48t215 -19q160 0 241 59.5t81 171.5q0 59 -22.5 102.5t-64.5 76t-100.5 55t-132.5 43.5q-109 31 -188.5 68.5t-132.5 90t-80 123t-27 166.5q0 98 36 176t103.5 133.5t163 85t213.5 29.5q86 0 180.5 -11t211.5 -40l-7 -184q-94 25 -191 39 t-175 14q-143 0 -224 -63.5t-81 -174.5q0 -53 18.5 -92t56 -70.5t98 -57t144.5 -52.5q98 -31 178 -66.5t135.5 -86t85 -121t29.5 -168.5q0 -209 -136 -321t-390 -112q-104 0 -231.5 18.5t-239.5 49.5z" />
<glyph unicode="T" horiz-adv-x="1171" d="M33 1329v187h1106v-187h-443v-1329h-223v1329h-440z" />
<glyph unicode="U" horiz-adv-x="1486" d="M147 608v908h224v-906q0 -236 90 -339t282 -103q193 0 283 103.5t90 338.5v906h223v-908q0 -164 -32.5 -282.5t-104.5 -195.5t-185.5 -113.5t-273.5 -36.5t-273.5 36.5t-185 113.5t-104.5 195.5t-33 282.5z" />
<glyph unicode="V" horiz-adv-x="1343" d="M10 1516h230l338 -1010l86 -293h18l86 293l340 1010h225l-510 -1516h-301z" />
<glyph unicode="W" horiz-adv-x="2021" d="M31 1516h237l234 -1002l55 -266h16l64 266l262 1002h229l254 -1002l62 -266h18l58 266l239 1002h238l-395 -1516h-287l-246 942l-49 277h-14l-52 -277l-252 -942h-286z" />
<glyph unicode="X" horiz-adv-x="1333" d="M0 0l524 780l-493 736h254l350 -541l29 -53h12l29 53l352 541h248l-500 -740l530 -776h-252l-387 584l-26 49h-13l-24 -49l-381 -584h-252z" />
<glyph unicode="Y" horiz-adv-x="1286" d="M-2 1516h244l338 -670l53 -131h18l54 131l339 670h242l-530 -1006v-510h-224v504z" />
<glyph unicode="Z" horiz-adv-x="1163" d="M63 0v174l744 1141v12h-719v189h987v-170l-745 -1147v-13h770v-186h-1037z" />
<glyph unicode="[" horiz-adv-x="665" d="M162 -328v2106h446v-154h-268v-1798h268v-154h-446z" />
<glyph unicode="\" horiz-adv-x="749" d="M59 1516h187l444 -1762h-186z" />
<glyph unicode="]" horiz-adv-x="665" d="M57 -174h271v1798h-271v154h445v-2106h-445v154z" />
<glyph unicode="^" horiz-adv-x="929" d="M82 985l289 631h186l291 -631h-160l-219 479h-8l-219 -479h-160z" />
<glyph unicode="_" horiz-adv-x="1171" d="M94 -121h983v-170h-983v170z" />
<glyph unicode="`" horiz-adv-x="532" d="M57 1649h232l141 -375l-160 -21z" />
<glyph unicode="a" horiz-adv-x="1064" d="M68 289q0 160 99 243.5t310 100.5l240 18v68q0 68 -11.5 113t-39 72.5t-75.5 38.5t-120 11q-63 0 -147 -10t-166 -26l-17 163q195 39 369 39q219 0 322.5 -87t103.5 -273v-760h-180l-21 137h-14q-84 -68 -174.5 -107.5t-186.5 -39.5q-141 0 -216.5 78.5t-75.5 220.5z M289 307q0 -153 155 -153q66 0 138.5 33.5t134.5 74.5v256l-180 -16q-137 -14 -192.5 -57.5t-55.5 -137.5z" />
<glyph unicode="b" d="M135 35v1620h219v-668q113 137 324 137t317.5 -135t106.5 -416q0 -137 -34 -246.5t-102.5 -186.5t-170 -119t-236.5 -44q-92 0 -193.5 13.5t-230.5 44.5zM354 158q43 -10 96.5 -15.5t110.5 -5.5q164 0 241 95.5t77 322.5q0 217 -62.5 309t-200.5 92q-53 0 -101 -15 t-84 -46t-56.5 -77t-20.5 -107v-553z" />
<glyph unicode="c" horiz-adv-x="933" d="M84 553q0 571 516 571q61 0 128 -7t126 -21v-181q-119 27 -231 27q-166 0 -242 -93t-76 -296q0 -205 74 -297t239 -92q63 0 118 5t118 19v-176q-49 -14 -118.5 -22t-135.5 -8q-260 0 -388 140t-128 431z" />
<glyph unicode="d" horiz-adv-x="1187" d="M84 539q0 293 143.5 440t395.5 147q55 0 106 -5t105 -13v547h217v-1655h-193l-18 127h-11q-110 -147 -319 -147q-211 0 -318.5 136t-107.5 423zM307 555q0 -219 62.5 -313.5t201.5 -94.5q53 0 101.5 16.5t84.5 48.5t56.5 79t20.5 110v543q-51 10 -104.5 15.5t-113.5 5.5 q-158 0 -233.5 -94.5t-75.5 -315.5z" />
<glyph unicode="e" horiz-adv-x="1077" d="M86 539q0 287 126 436t368 149q415 0 415 -491q0 -52 -3 -87q-3 -36 -9 -67h-678q10 -174 81 -249.5t222 -75.5q76 0 164 14t172 43l10 -166q-78 -29 -176 -46t-190 -17q-248 0 -375 141t-127 416zM305 623h492q-4 182 -55.5 260t-168.5 78q-127 0 -192.5 -82t-75.5 -256 z" />
<glyph unicode="f" horiz-adv-x="751" d="M33 920v186h209v59q0 141 25.5 234.5t85 150t159.5 83t252 32.5l10 -164q-94 -6 -155.5 -22.5t-96.5 -50t-49 -90t-14 -142.5v-90h266v-186h-266v-920h-219v920h-207z" />
<glyph unicode="g" horiz-adv-x="1187" d="M84 545q0 289 144.5 435t394.5 146q94 0 196.5 -14t233.5 -49v-940q0 -160 -39 -269.5t-109.5 -177t-168 -97.5t-214.5 -30q-92 0 -186 12.5t-170 35.5l14 167q76 -20 156 -32.5t158 -12.5q80 0 144 18.5t110.5 61.5t71 114t24.5 173v70h-13q-104 -147 -317 -148 q-213 0 -321.5 131t-108.5 406zM307 561q0 -209 63.5 -300t200.5 -91q55 0 102.5 16.5t83.5 48t56.5 77.5t20.5 108v524q-51 10 -103.5 15.5t-112.5 5.5q-160 0 -235.5 -92.5t-75.5 -311.5z" />
<glyph unicode="h" d="M137 0v1655h219v-670q137 72 234.5 106.5t185.5 34.5q279 0 279 -301v-825h-217v756q0 100 -37 143t-115 43q-66 0 -150.5 -27.5t-179.5 -76.5v-838h-219z" />
<glyph unicode="i" horiz-adv-x="495" d="M119 1446q0 66 30.5 96.5t98.5 30.5q131 0 131 -127t-131 -127q-68 0 -98.5 30.5t-30.5 96.5zM139 0v1106h217v-1106h-217z" />
<glyph unicode="j" horiz-adv-x="491" d="M14 -403q33 72 56.5 145.5t39 153t22.5 170t7 194.5v67.5v146.5v188.5v192.5t-1 159.5t-1 91.5h219v-936q0 -160 -50 -322.5t-136 -298.5zM115 1446q0 66 30.5 96.5t98.5 30.5q131 0 131 -127t-131 -127q-68 0 -98.5 30.5t-30.5 96.5z" />
<glyph unicode="k" horiz-adv-x="1097" d="M137 0v1655h219v-1010h152l321 461h242l-375 -518l-39 -17v-6l41 -20l408 -545h-242l-358 492h-150v-492h-219z" />
<glyph unicode="l" horiz-adv-x="499" d="M141 0v1655h219v-1655h-219z" />
<glyph unicode="m" horiz-adv-x="1779" d="M137 0v1106h180l15 -125h10q121 76 209 110.5t174 34.5q190 0 250 -147h10q121 78 211 112.5t176 34.5q135 0 206 -73.5t71 -227.5v-825h-215v754q0 100 -38 143t-116 43q-55 0 -127 -25.5t-152 -72.5v-842h-215v754q0 100 -37.5 143t-115.5 43q-57 0 -130 -26.5 t-149 -73.5v-840h-217z" />
<glyph unicode="n" d="M137 0v1106h185l14 -125h10q72 39 132.5 66.5t111.5 45t97 25.5t91 8q135 0 206 -73.5t71 -227.5v-825h-217v756q0 102 -37 144t-115 42q-68 0 -152.5 -27.5t-177.5 -76.5v-838h-219z" />
<glyph unicode="o" horiz-adv-x="1173" d="M84 553q0 281 128 427t376 146q246 0 374 -146t128 -427t-128 -427t-374 -146q-248 0 -376 146t-128 427zM305 553q0 -213 66.5 -306t216.5 -93t216 93t66 306t-67.5 305t-214.5 92q-150 0 -216.5 -92t-66.5 -305z" />
<glyph unicode="p" horiz-adv-x="1189" d="M137 -451v1557h193l16 -125h12q111 145 322 145t317.5 -136t106.5 -417q0 -276 -138.5 -434.5t-402.5 -158.5q-53 0 -106.5 5t-100.5 11v-447h-219zM356 162q45 -10 100.5 -16.5t110.5 -6.5q162 0 239 96.5t77 321.5q0 217 -62.5 309t-202.5 92q-111 0 -186.5 -64.5 t-75.5 -188.5v-543z" />
<glyph unicode="q" d="M84 539q0 289 141.5 438t403.5 149q111 0 222.5 -13t199.5 -32v-1532h-213v578q-117 -147 -328 -147q-426 0 -426 559zM305 557q0 -219 61.5 -314.5t204.5 -95.5q115 0 187.5 68t72.5 191v538q-115 20 -213 21q-166 0 -239.5 -94.5t-73.5 -313.5z" />
<glyph unicode="r" horiz-adv-x="784" d="M137 0v1106h185l14 -150h8q80 53 174 100.5t180 67.5h62v-202h-80q-86 -12 -172 -44t-152 -73v-805h-219z" />
<glyph unicode="s" horiz-adv-x="931" d="M84 27v168q92 -25 181 -39.5t169 -14.5q106 0 160.5 41t54.5 117q0 80 -52 117t-148 55q-59 10 -122 25.5t-114 49.5t-85 94t-34 163q0 154 106.5 240.5t293.5 86.5q70 0 141.5 -8t181.5 -30l-6 -172q-100 23 -168 32t-123 9q-106 0 -161.5 -40t-55.5 -112 q0 -43 16.5 -71.5t46 -46t69.5 -29t89 -21.5q72 -14 133.5 -35.5t105.5 -58.5t69.5 -93.5t25.5 -140.5q0 -160 -107.5 -248t-306.5 -88q-74 0 -160.5 12.5t-199.5 37.5z" />
<glyph unicode="t" horiz-adv-x="796" d="M31 918v188h221l31 289l174 22v-311h297v-188h-295v-572q0 -98 41 -144t129 -46q29 0 61.5 5t67.5 15v-170q-95 -22 -193 -22q-326 0 -325 315v619h-209z" />
<glyph unicode="u" d="M129 281v825h219v-760q0 -100 34 -141t116 -41q78 0 160.5 31.5t170.5 78.5v832h220v-1106h-185l-14 127h-8q-74 -39 -129.5 -66.5t-104.5 -46t-95 -26.5t-101 -8q-141 0 -212 76.5t-71 224.5z" />
<glyph unicode="v" horiz-adv-x="1114" d="M29 1083v23h229l246 -756l45 -168h18l43 168l252 756h225v-23l-393 -1083h-276z" />
<glyph unicode="w" horiz-adv-x="1579" d="M41 1096v10h211l166 -727l31 -156h16l35 156l186 727h207l190 -727l37 -156h15l30 156l162 727h211v-10l-278 -1096h-246l-191 707l-26 133h-17l-24 -133l-187 -707h-245z" />
<glyph unicode="x" horiz-adv-x="1107" d="M20 0v25l383 548l-364 517v16h233l222 -330l55 -88h14l53 88l220 330h233v-16l-364 -527l382 -538v-25h-231l-238 358l-61 95h-12l-60 -95l-233 -358h-232z" />
<glyph unicode="y" horiz-adv-x="1126" d="M23 1083v23h231l258 -715l43 -158h14l45 158l265 715h225v-23l-600 -1534l-207 37l-2 19l156 403z" />
<glyph unicode="z" horiz-adv-x="976" d="M70 0v145l548 775v12h-530v174h799v-141l-541 -777v-12h561v-176h-837z" />
<glyph unicode="{" horiz-adv-x="710" d="M57 645v170q147 0 148 207v512q0 135 50 189.5t173 54.5q18 0 52 -1t68 -3t62.5 -3.5t36.5 -3.5v-143h-162q-53 0 -76.5 -21.5t-23.5 -72.5v-553q0 -94 -40 -163t-109 -85q70 -16 109.5 -83.5t39.5 -160.5v-557q0 -53 23.5 -74.5t76.5 -21.5h162v-143q-8 -2 -35.5 -4 t-61.5 -3t-67.5 -2.5t-54.5 -1.5q-123 0 -173 55.5t-50 190.5v516q0 205 -148 205z" />
<glyph unicode="|" horiz-adv-x="532" d="M162 -451v2106h207v-2106h-207z" />
<glyph unicode="}" horiz-adv-x="710" d="M66 -168h159q57 0 80 21.5t23 74.5v557q0 92 40 160t109 84q-70 16 -109.5 85t-39.5 163v553q0 51 -22.5 72.5t-80.5 21.5h-159v143q8 2 35.5 3.5t61.5 3.5t67.5 3t54.5 1q123 0 173 -54.5t50 -189.5v-512q0 -207 147 -207v-170q-147 0 -147 -205v-516q0 -135 -50 -190.5 t-175 -55.5q-18 0 -52 1.5t-68 2.5t-61.5 3t-35.5 4v143z" />
<glyph unicode="~" horiz-adv-x="1261" d="M106 573q55 66 99.5 109t82.5 68.5t74.5 36t79.5 10.5q59 0 106.5 -23.5t89.5 -53.5t83 -53.5t90 -23.5q59 0 117.5 39t93.5 104l133 -75q-25 -43 -59.5 -86t-75.5 -78t-89 -56.5t-102 -21.5q-63 0 -112 23.5t-92 53t-82 53.5t-82 24q-57 0 -110.5 -35t-119.5 -113z" />
<glyph unicode="&#xa1;" horiz-adv-x="491" d="M123 987q0 57 33 89t92 32t93 -32t34 -89t-34 -89t-93 -32t-92 32t-33 89zM133 -389l43 1059v24h137v-24l41 -1059v-21h-221v21z" />
<glyph unicode="&#xa2;" horiz-adv-x="966" d="M84 553q0 518 428 565v234h147v-230q49 -4 98.5 -10t96.5 -16v-181q-119 27 -231 27q-166 0 -242 -93t-76 -296q0 -205 74 -297t239 -92q63 0 118 5t118 19v-176q-39 -10 -90 -17t-105 -11v-230h-147v232q-428 45 -428 567z" />
<glyph unicode="&#xa3;" horiz-adv-x="1263" d="M90 0v195h281v475h-281v176h281v227q0 231 108.5 344t347.5 113q78 0 161 -14.5t188 -42.5l-17 -181q-84 23 -162.5 35t-140.5 12q-72 0 -122 -14t-80.5 -47t-45 -83t-14.5 -124v-225h401v-176h-401v-477h553v-193h-1057z" />
<glyph unicode="&#xa4;" horiz-adv-x="1224" d="M102 346l111 113l98 69q-63 94 -63 230q0 68 17.5 124t47.5 103l-100 74l-111 110l99 99l112 -113l70 -96q45 35 102.5 53t126.5 18q68 0 125.5 -18t102.5 -53l71 96l113 113l98 -99l-112 -110l-101 -74q31 -47 48.5 -103.5t17.5 -123.5q0 -68 -17.5 -124t-48.5 -104 l101 -71l112 -113l-98 -98l-113 112l-69 97q-92 -74 -230 -74q-137 0 -231 72l-68 -95l-112 -112zM393 758q0 -117 59.5 -181.5t159.5 -64.5t158.5 63.5t58.5 182.5q0 117 -58 180t-159 63q-100 0 -159.5 -62t-59.5 -181z" />
<glyph unicode="&#xa5;" horiz-adv-x="1392" d="M55 1516h244l338 -670l53 -131h19l53 131l340 670h241l-454 -861h278v-149h-354v-170h354v-152h-354v-184h-223v184h-389v152h389v168l-2 2h-387v149h309z" />
<glyph unicode="&#xa6;" horiz-adv-x="526" d="M160 418h207v-869h-207v869zM160 786v869h207v-869h-207z" />
<glyph unicode="&#xa7;" horiz-adv-x="987" d="M109 27v161q92 -25 182 -37t170 -12q104 0 158.5 41t54.5 119q0 80 -51.5 118t-147.5 56q-59 10 -121.5 24.5t-115 48.5t-86 94t-33.5 163q0 66 20.5 117t55.5 92q-35 35 -55.5 85t-20.5 128q0 154 106.5 239.5t294.5 85.5q68 0 138.5 -9t183.5 -30l-6 -168 q-100 23 -168 32t-123 9q-104 0 -159.5 -39.5t-55.5 -113.5q0 -43 16 -72t45 -47t69 -29.5t89 -21.5q72 -14 133 -35.5t106.5 -58.5t71 -93.5t25.5 -140.5q0 -127 -76 -215q76 -72 76 -205q0 -160 -108.5 -248t-307.5 -88q-74 0 -161 12.5t-199 37.5zM326 817 q0 -47 14 -77.5t40 -50t59.5 -33t72.5 -23.5q29 -8 64.5 -19.5t62.5 -21.5q39 45 39 119q0 88 -45 128t-127 60q-29 8 -64.5 16.5t-62.5 20.5q-53 -45 -53 -119z" />
<glyph unicode="&#xa8;" horiz-adv-x="962" d="M113 1421q0 115 120 115q121 0 121 -115q0 -118 -121 -118t-120 118zM584 1421q0 115 121 115q119 0 118 -115q1 -118 -118 -118q-121 0 -121 118z" />
<glyph unicode="&#xa9;" horiz-adv-x="1701" d="M90 758q0 174 54.5 318.5t154.5 246.5t240.5 158.5t312.5 56.5t311.5 -56.5t239.5 -158.5t154.5 -246.5t54.5 -318.5q0 -176 -54.5 -319.5t-154.5 -246t-239.5 -159t-311.5 -56.5t-312.5 56.5t-240.5 159t-154.5 246t-54.5 319.5zM221 758q0 -147 44 -268t126 -207 t199 -133.5t262 -47.5q143 0 260 47.5t199 133.5t126 206.5t44 268.5q0 147 -44 269t-126 208t-199 133t-260 47q-145 0 -262 -47t-199 -133t-126 -208t-44 -269zM502 750q0 213 100 318.5t281 105.5q47 0 93 -5.5t85 -15.5v-129q-86 18 -162 18q-246 0 -246 -290 q0 -147 62.5 -217t179.5 -70q35 0 79 5t91 13v-127q-84 -22 -182 -22q-180 0 -280.5 103.5t-100.5 312.5z" />
<glyph unicode="&#xaa;" horiz-adv-x="878" d="M80 938q0 104 78 166.5t227 73.5l190 12v43q0 47 -7 76.5t-27.5 47t-54 25t-85.5 7.5q-43 0 -101 -4.5t-136 -16.5l-14 131q86 16 154.5 22.5t125.5 6.5q174 0 250 -60.5t76 -193.5v-553h-152l-12 96h-8q-72 -51 -137.5 -77.5t-131.5 -26.5q-106 0 -170.5 61.5 t-64.5 163.5zM260 950q0 -104 117 -104q41 0 87 15.5t111 49.5v168l-100 -6q-123 -10 -169 -36.5t-46 -86.5z" />
<glyph unicode="&#xab;" horiz-adv-x="1208" d="M66 549v8l309 487h227l-309 -487v-8l309 -488h-227zM592 549v8l309 487h227l-309 -487v-8l309 -488h-227z" />
<glyph unicode="&#xac;" horiz-adv-x="1617" d="M113 698v185h1368v-660h-213v475h-1155z" />
<glyph unicode="&#xad;" horiz-adv-x="888" d="M123 487v172h643v-172h-643z" />
<glyph unicode="&#xae;" horiz-adv-x="1449" d="M98 913q0 137 46 253t129 199t198 130t254 47q137 0 253 -47t200 -130t130 -198.5t46 -253.5q0 -137 -46 -251.5t-130 -197.5t-200 -129t-253 -46q-139 0 -254 46t-198 129t-129 197.5t-46 251.5zM209 913q0 -115 38 -210t105.5 -163.5t162.5 -106.5t210 -38t210 38 t163.5 106.5t106.5 164t38 209.5q0 115 -38 211.5t-106.5 165t-163.5 107.5t-210 39t-210 -39t-162.5 -107.5t-105.5 -165t-38 -211.5zM498 588v674q53 6 102 10t92 4q156 0 229.5 -53.5t73.5 -163.5q0 -156 -139 -197l-2 -6l162 -268h-119l-143 246h-148v-246h-108z M606 926q14 -2 42 -2h48q98 0 142.5 31.5t44.5 101.5q0 66 -41 97.5t-140 31.5h-44.5t-51.5 -4v-256z" />
<glyph unicode="&#xaf;" horiz-adv-x="917" d="M115 1317v151h659v-151h-659z" />
<glyph unicode="&#xb0;" horiz-adv-x="907" d="M78 1147q0 82 27.5 152.5t77.5 122t120 80t152 28.5t150.5 -28.5t117.5 -80t76.5 -122t27.5 -152.5t-27.5 -151.5t-76.5 -121t-117.5 -80t-150.5 -28.5t-152 28.5t-120 80t-77.5 121t-27.5 151.5zM219 1147q0 -111 62.5 -181.5t173.5 -70.5t171 70.5t60 181.5 q0 113 -60.5 183.5t-170.5 70.5q-111 0 -173.5 -70.5t-62.5 -183.5z" />
<glyph unicode="&#xb1;" horiz-adv-x="1083" d="M129 799v153h334v342h153v-342h334v-153h-334v-334h-153v334h-334zM131 164v153h821v-153h-821z" />
<glyph unicode="&#xb2;" horiz-adv-x="856" d="M72 616v164q0 137 71.5 234.5t237.5 191.5q115 63 158 112.5t43 111.5q0 152 -203 151q-53 0 -114.5 -9t-143.5 -28l-21 160q92 23 170 33t146 10q358 0 358 -303q0 -113 -62.5 -195t-199.5 -159q-119 -72 -169 -131.5t-50 -131.5v-51h481v-160h-702z" />
<glyph unicode="&#xb3;" horiz-adv-x="813" d="M82 1722q53 12 119.5 19.5t124.5 7.5q190 0 286.5 -78t96.5 -225q0 -92 -43 -157.5t-121 -94.5q92 -31 141 -100.5t49 -173.5q0 -154 -104 -237t-299 -83q-66 0 -130.5 6t-115.5 17v163h14q37 -8 95.5 -14t103.5 -6q129 0 188.5 44t59.5 130q0 88 -61.5 131t-196.5 43 h-88v141h86q229 0 229 166q0 80 -50 121t-161 41q-37 0 -89 -6t-112 -16h-16z" />
<glyph unicode="&#xb4;" horiz-adv-x="514" d="M82 1264l143 378h226l-211 -395z" />
<glyph unicode="&#xb5;" horiz-adv-x="1245" d="M160 -451v1557h217v-780q0 -168 151 -168q74 0 153 28.5t177 77.5v842h219v-1106h-184l-14 127h-9q-74 -41 -129 -68.5t-103 -45t-94 -25.5t-102 -8q-35 0 -65 6v-437h-217z" />
<glyph unicode="&#xb6;" horiz-adv-x="1183" d="M72 1034q0 137 31.5 231.5t90 152t142.5 83t186 25.5q53 0 104.5 -5t108.5 -16v-1505h-117v545q-25 -2 -50 -2h-50q-102 0 -184 25.5t-140.5 83t-90 151.5t-31.5 231zM854 0v1505h145v-1505h-145z" />
<glyph unicode="&#xb7;" horiz-adv-x="487" d="M111 758q0 70 32.5 100.5t100.5 30.5q133 0 133 -131q0 -68 -33.5 -98.5t-99.5 -30.5q-68 0 -100.5 29.5t-32.5 99.5z" />
<glyph unicode="&#xb8;" horiz-adv-x="600" d="M66 -285q31 -10 67.5 -16t69.5 -6q66 0 95.5 26.5t29.5 79.5q0 49 -27 110.5t-86 141.5h152q68 -94 92 -154.5t24 -121.5q0 -106 -62 -166t-179 -60q-39 0 -85 7.5t-91 17.5v141z" />
<glyph unicode="&#xb9;" horiz-adv-x="657" d="M35 1511l2 27l336 195h137v-1119h-191v908l-233 -107h-20z" />
<glyph unicode="&#xba;" horiz-adv-x="933" d="M86 1118q0 209 100.5 310.5t280.5 101.5t280.5 -101.5t100.5 -310.5t-100.5 -310t-280.5 -101t-280.5 101t-100.5 310zM264 1118q0 -160 51.5 -217t151.5 -57q98 0 150.5 57t52.5 217t-52.5 217.5t-150.5 57.5q-100 0 -151.5 -57.5t-51.5 -217.5z" />
<glyph unicode="&#xbb;" horiz-adv-x="1208" d="M82 61l309 488v8l-309 487h223l309 -487v-8l-309 -488h-223zM610 61l310 488v8l-310 487h224l309 -487v-8l-309 -488h-224z" />
<glyph unicode="&#xbc;" horiz-adv-x="2000" d="M53 1307l2 26l336 195h137v-1118h-190v907l-234 -107h-20zM487 0l650 1516h190l-649 -1516h-191zM1094 365l376 757l21 6l156 -18l12 -31l-365 -682h318l49 355h129v-355h149v-149h-149v-248h-191v248h-471z" />
<glyph unicode="&#xbd;" horiz-adv-x="2054" d="M53 1307l2 26l336 195h137v-1118h-190v907l-234 -107h-20zM487 0l650 1516h190l-649 -1516h-191zM1253 2v164q0 68 16.5 124t53.5 107.5t96.5 98.5t143.5 96q59 33 98 60.5t61.5 53t31.5 51t9 56.5q0 154 -200 154q-57 0 -124 -10.5t-136 -26.5l-21 160q186 43 315 43 q358 0 359 -304q0 -55 -14.5 -101t-45 -88t-81 -82t-121.5 -83q-121 -76 -170 -134t-49 -128v-51h481v-160h-703z" />
<glyph unicode="&#xbe;" horiz-adv-x="2121" d="M104 1518q53 12 120 19t124 7q190 0 286.5 -77.5t96.5 -225.5q0 -92 -43 -157.5t-121 -94.5q92 -31 141.5 -100.5t49.5 -173.5q0 -154 -104.5 -237t-299.5 -83q-66 0 -130 6.5t-115 16.5v164h14q37 -8 95 -14.5t104 -6.5q129 0 188 44t59 130q0 88 -61.5 131t-196.5 43 h-88v142h86q229 0 230 166q0 80 -50.5 120.5t-160.5 40.5q-37 0 -89.5 -6t-111.5 -16h-16zM616 0l650 1516h190l-649 -1516h-191zM1219 365l376 757l21 6l156 -18l12 -31l-365 -682h318l49 355h129v-355h149v-149h-149v-248h-191v248h-471z" />
<glyph unicode="&#xbf;" horiz-adv-x="888" d="M59 -20q0 100 34 172.5t90.5 124t128 82t145.5 49.5l6 276v35h151v-35l17 -383q-66 -16 -131.5 -37.5t-117.5 -55.5t-84 -85t-32 -125q0 -70 22.5 -116t60.5 -74.5t88 -41t104 -12.5q70 0 142.5 12.5t133.5 30.5l19 -168q-78 -23 -161 -37t-171 -14q-92 0 -173 22.5 t-141.5 70.5t-95.5 124t-35 185zM410 997q0 59 33 90t92 31q125 0 124 -121q0 -57 -32.5 -88.5t-91.5 -31.5t-92 31.5t-33 88.5z" />
<glyph unicode="&#xc0;" horiz-adv-x="1343" d="M10 0v14l496 1502h332l495 -1502v-14h-215l-143 428h-608l-142 -428h-215zM369 1950h227l147 -293l-165 -27zM422 610h500l-160 480l-82 258h-18l-82 -258z" />
<glyph unicode="&#xc1;" horiz-adv-x="1343" d="M10 0v14l496 1502h332l495 -1502v-14h-215l-143 428h-608l-142 -428h-215zM422 610h500l-160 480l-82 258h-18l-82 -258zM580 1645l147 305h227l-209 -320z" />
<glyph unicode="&#xc2;" horiz-adv-x="1343" d="M10 0v14l496 1502h332l495 -1502v-14h-215l-143 428h-608l-142 -428h-215zM338 1653v166l336 151l336 -151v-166l-336 151zM422 610h500l-160 480l-82 258h-18l-82 -258z" />
<glyph unicode="&#xc3;" horiz-adv-x="1343" d="M10 0v14l496 1502h332l495 -1502v-14h-215l-143 428h-608l-142 -428h-215zM283 1749q53 86 122.5 131t137.5 45q45 0 87 -13.5t82 -28.5t79.5 -28.5t82.5 -13.5q86 0 168 80l50 -53q-51 -86 -122 -132t-141 -46q-43 0 -85 12t-81.5 27.5t-79.5 29t-83 13.5t-85 -17.5 t-85 -58.5zM422 610h500l-160 480l-82 258h-18l-82 -258z" />
<glyph unicode="&#xc4;" horiz-adv-x="1343" d="M10 0v14l496 1502h332l495 -1502v-14h-215l-143 428h-608l-142 -428h-215zM287 1794q0 68 32.5 98.5t98.5 30.5t99.5 -30.5t33.5 -98.5q0 -131 -133 -131q-131 0 -131 131zM422 610h500l-160 480l-82 258h-18l-82 -258zM793 1794q0 68 32.5 98.5t100.5 30.5 q66 0 99.5 -30.5t33.5 -98.5q0 -131 -133 -131t-133 131z" />
<glyph unicode="&#xc5;" horiz-adv-x="1343" d="M10 0v14l496 1502h332l495 -1502v-14h-215l-143 428h-608l-142 -428h-215zM422 610h500l-160 480l-82 258h-18l-82 -258zM432 1786q0 96 66.5 159.5t173.5 63.5q106 0 172.5 -63.5t66.5 -159.5t-66.5 -159.5t-172.5 -63.5t-173 63.5t-67 159.5zM539 1786q0 -125 133 -125 t133 125q0 59 -33 93t-100 34q-70 0 -101.5 -34t-31.5 -93z" />
<glyph unicode="&#xc6;" horiz-adv-x="1779" d="M6 0v14l567 1502h1098v-185h-635l25 -475h563v-182h-553l27 -490h596v-184h-817l-19 426h-471l-162 -426h-219zM459 614h393l-31 729h-86z" />
<glyph unicode="&#xc7;" horiz-adv-x="1146" d="M92 756q0 401 165 590.5t507 189.5q66 0 145.5 -8t165.5 -23v-186q-86 16 -154.5 22.5t-127.5 6.5q-127 0 -216.5 -32t-145.5 -102.5t-82.5 -183t-26.5 -274.5q0 -158 26.5 -269.5t82.5 -182.5t143.5 -103.5t207.5 -32.5q29 0 68 2t79 7t79 10.5t67 11.5v-183 q-59 -14 -136 -24t-148 -12q39 -61 53 -108.5t14 -96.5q0 -106 -62.5 -166t-179.5 -60q-39 0 -85 7.5t-91 17.5v141q31 -10 68 -16t70 -6q66 0 95 26.5t29 79.5q0 41 -16 87t-53 104q-274 35 -407.5 223t-133.5 543z" />
<glyph unicode="&#xc8;" horiz-adv-x="1210" d="M162 0v1516h944v-185h-721v-473h659v-184h-659v-490h739v-184h-962zM356 1950h228l147 -293l-166 -27z" />
<glyph unicode="&#xc9;" horiz-adv-x="1210" d="M162 0v1516h944v-185h-721v-473h659v-184h-659v-490h739v-184h-962zM541 1645l147 305h227l-208 -320z" />
<glyph unicode="&#xca;" horiz-adv-x="1210" d="M162 0v1516h944v-185h-721v-473h659v-184h-659v-490h739v-184h-962zM309 1653v166l336 151l336 -151v-166l-336 151z" />
<glyph unicode="&#xcb;" horiz-adv-x="1210" d="M162 0v1516h944v-185h-721v-473h659v-184h-659v-490h739v-184h-962zM256 1794q0 68 33 98.5t98 30.5q66 0 99.5 -30.5t33.5 -98.5q0 -131 -133 -131q-131 0 -131 131zM762 1794q0 68 32.5 98.5t100.5 30.5q66 0 99.5 -30.5t33.5 -98.5q0 -131 -133 -131t-133 131z" />
<glyph unicode="&#xcc;" horiz-adv-x="544" d="M-8 1950h227l148 -293l-166 -27zM162 0v1516h223v-1516h-223z" />
<glyph unicode="&#xcd;" horiz-adv-x="544" d="M162 0v1516h223v-1516h-223zM184 1645l148 305h227l-209 -320z" />
<glyph unicode="&#xce;" horiz-adv-x="544" d="M-59 1653v166l335 151l336 -151v-166l-336 151zM162 0v1516h223v-1516h-223z" />
<glyph unicode="&#xcf;" horiz-adv-x="544" d="M-109 1794q0 68 33 98.5t99 30.5t99.5 -30.5t33.5 -98.5q0 -131 -133 -131q-131 0 -132 131zM162 0v1516h223v-1516h-223zM397 1794q0 68 33 98.5t100 30.5q66 0 100 -30.5t34 -98.5q-1 -131 -134 -131t-133 131z" />
<glyph unicode="&#xd0;" horiz-adv-x="1452" d="M4 672v174h189v663q117 12 226 19.5t187 7.5q393 0 574.5 -187.5t181.5 -592.5q0 -207 -46 -354.5t-144.5 -241.5t-251 -139.5t-365.5 -45.5q-102 0 -196.5 6.5t-165.5 18.5v672h-189zM414 174q61 -8 110.5 -11t102.5 -3q133 0 228 33.5t156.5 105.5t91.5 185.5t30 273.5 t-28 271.5t-88.5 183t-155.5 104.5t-228 33q-49 0 -107.5 -3.5t-111.5 -11.5v-489h311v-174h-311v-498z" />
<glyph unicode="&#xd1;" horiz-adv-x="1529" d="M162 0v1516h190l692 -988l109 -176h14v1164h201v-1516h-190l-693 983l-110 178h-15v-1161h-198zM375 1749q53 86 122.5 131t137.5 45q45 0 87 -13.5t82 -28.5t80 -28.5t83 -13.5q86 0 168 80l49 -53q-51 -86 -122 -132t-140 -46q-43 0 -85 12t-82 27.5t-80 29t-83 13.5 t-85 -17.5t-85 -58.5z" />
<glyph unicode="&#xd2;" horiz-adv-x="1466" d="M92 756q0 389 163 584.5t478 195.5t478 -195.5t163 -584.5q0 -387 -163 -581.5t-478 -194.5t-478 194.5t-163 581.5zM319 756q0 -309 99.5 -449.5t314.5 -140.5t314.5 140t99.5 450q0 309 -101.5 451.5t-312.5 142.5q-213 0 -313.5 -141.5t-100.5 -452.5zM432 1950h227 l148 -293l-166 -27z" />
<glyph unicode="&#xd3;" horiz-adv-x="1466" d="M92 756q0 389 163 584.5t478 195.5t478 -195.5t163 -584.5q0 -387 -163 -581.5t-478 -194.5t-478 194.5t-163 581.5zM319 756q0 -309 99.5 -449.5t314.5 -140.5t314.5 140t99.5 450q0 309 -101.5 451.5t-312.5 142.5q-213 0 -313.5 -141.5t-100.5 -452.5zM641 1645 l147 305h228l-209 -320z" />
<glyph unicode="&#xd4;" horiz-adv-x="1466" d="M92 756q0 389 163 584.5t478 195.5t478 -195.5t163 -584.5q0 -387 -163 -581.5t-478 -194.5t-478 194.5t-163 581.5zM319 756q0 -309 99.5 -449.5t314.5 -140.5t314.5 140t99.5 450q0 309 -101.5 451.5t-312.5 142.5q-213 0 -313.5 -141.5t-100.5 -452.5zM397 1653v166 l336 151l336 -151v-166l-336 151z" />
<glyph unicode="&#xd5;" horiz-adv-x="1466" d="M92 756q0 389 163 584.5t478 195.5t478 -195.5t163 -584.5q0 -387 -163 -581.5t-478 -194.5t-478 194.5t-163 581.5zM319 756q0 -309 99.5 -449.5t314.5 -140.5t314.5 140t99.5 450q0 309 -101.5 451.5t-312.5 142.5q-213 0 -313.5 -141.5t-100.5 -452.5zM344 1749 q53 86 123 131t137 45q45 0 87 -13.5t82 -28.5t80 -28.5t83 -13.5q86 0 168 80l49 -53q-51 -86 -121.5 -132t-140.5 -46q-43 0 -85 12t-82 27.5t-80 29t-83 13.5t-85 -17.5t-85 -58.5z" />
<glyph unicode="&#xd6;" horiz-adv-x="1466" d="M92 756q0 389 163 584.5t478 195.5t478 -195.5t163 -584.5q0 -387 -163 -581.5t-478 -194.5t-478 194.5t-163 581.5zM319 756q0 -309 99.5 -449.5t314.5 -140.5t314.5 140t99.5 450q0 309 -101.5 451.5t-312.5 142.5q-213 0 -313.5 -141.5t-100.5 -452.5zM344 1794 q0 68 33 98.5t98 30.5q66 0 99.5 -30.5t33.5 -98.5q0 -131 -133 -131q-131 0 -131 131zM850 1794q0 68 32.5 98.5t100.5 30.5q66 0 99.5 -30.5t33.5 -98.5q0 -131 -133 -131t-133 131z" />
<glyph unicode="&#xd7;" horiz-adv-x="970" d="M102 485l273 275l-273 272l109 111l272 -275l275 275l110 -111l-274 -274l274 -273l-108 -108l-275 272l-274 -272z" />
<glyph unicode="&#xd8;" horiz-adv-x="1474" d="M53 0l174 221q-131 193 -131 535q0 389 163 584.5t478 195.5q258 0 416 -135l90 115h178l-172 -222q131 -197 131 -538q0 -387 -162.5 -581.5t-480.5 -194.5q-260 0 -415 135l-91 -115h-178zM324 756q0 -223 47 -350l655 833q-102 111 -289 111q-213 0 -313 -141.5 t-100 -452.5zM449 276q98 -110 288 -110q215 0 315.5 140t100.5 450q0 219 -51 352z" />
<glyph unicode="&#xd9;" horiz-adv-x="1486" d="M147 608v908h224v-906q0 -236 90 -339t282 -103q193 0 283 103.5t90 338.5v906h223v-908q0 -164 -32.5 -282.5t-104.5 -195.5t-185.5 -113.5t-273.5 -36.5t-273.5 36.5t-185 113.5t-104.5 195.5t-33 282.5zM442 1950h228l147 -293l-166 -27z" />
<glyph unicode="&#xda;" horiz-adv-x="1486" d="M147 608v908h224v-906q0 -236 90 -339t282 -103q193 0 283 103.5t90 338.5v906h223v-908q0 -164 -32.5 -282.5t-104.5 -195.5t-185.5 -113.5t-273.5 -36.5t-273.5 36.5t-185 113.5t-104.5 195.5t-33 282.5zM637 1645l147 305h228l-209 -320z" />
<glyph unicode="&#xdb;" horiz-adv-x="1486" d="M147 608v908h224v-906q0 -236 90 -339t282 -103q193 0 283 103.5t90 338.5v906h223v-908q0 -164 -32.5 -282.5t-104.5 -195.5t-185.5 -113.5t-273.5 -36.5t-273.5 36.5t-185 113.5t-104.5 195.5t-33 282.5zM401 1653v166l336 151l336 -151v-166l-336 151z" />
<glyph unicode="&#xdc;" horiz-adv-x="1486" d="M147 608v908h224v-906q0 -236 90 -339t282 -103q193 0 283 103.5t90 338.5v906h223v-908q0 -164 -32.5 -282.5t-104.5 -195.5t-185.5 -113.5t-273.5 -36.5t-273.5 36.5t-185 113.5t-104.5 195.5t-33 282.5zM352 1794q0 68 33 98.5t98 30.5q66 0 99.5 -30.5t33.5 -98.5 q0 -131 -133 -131q-131 0 -131 131zM858 1794q0 68 33 98.5t100 30.5q66 0 99.5 -30.5t33.5 -98.5q0 -131 -133 -131t-133 131z" />
<glyph unicode="&#xdd;" horiz-adv-x="1286" d="M-2 1516h244l338 -670l53 -131h18l54 131l339 670h242l-530 -1006v-510h-224v504zM555 1645l147 305h228l-209 -320z" />
<glyph unicode="&#xde;" horiz-adv-x="1280" d="M162 0v1516h223v-242q82 6 162 6q348 0 507.5 -125t159.5 -397q0 -137 -37.5 -235.5t-118.5 -162t-207 -93t-300 -29.5q-41 0 -82 1t-84 3v-242h-223zM385 436q12 -4 35.5 -6t51.5 -3t54.5 -2t44.5 -1q117 0 197 17.5t129 56.5t70.5 103.5t21.5 156.5q0 90 -22.5 153.5 t-71.5 103.5t-129 57.5t-197 17.5q-18 0 -42.5 -1.5t-51 -2.5t-50.5 -4l-40 -5v-641z" />
<glyph unicode="&#xdf;" horiz-adv-x="1333" d="M137 0v1204q0 240 123 348.5t379 108.5t380 -109.5t124 -347.5v-239h-195q-111 0 -168 -41t-57 -115q0 -43 16.5 -71.5t45 -46t69.5 -29t90 -21.5q70 -14 131.5 -35.5t106.5 -58.5t70.5 -93.5t25.5 -140.5q0 -160 -107.5 -248t-306.5 -88q-76 0 -162 12.5t-198 37.5v161 q94 -25 183 -37t167 -12q104 0 158.5 41t54.5 119q0 80 -51 118t-148 56q-59 10 -121.5 24.5t-114.5 48.5t-85 94t-33 163q0 154 108.5 240.5t301.5 86.5v74q0 152 -68 216.5t-215 64.5q-152 0 -218.5 -63.5t-66.5 -217.5v-1204h-219z" />
<glyph unicode="&#xe0;" horiz-adv-x="1064" d="M68 289q0 160 99 243.5t310 100.5l240 18v68q0 68 -11.5 113t-39 72.5t-75.5 38.5t-120 11q-63 0 -147 -10t-166 -26l-17 163q195 39 369 39q219 0 322.5 -87t103.5 -273v-760h-180l-21 137h-14q-84 -68 -174.5 -107.5t-186.5 -39.5q-141 0 -216.5 78.5t-75.5 220.5z M250 1649h231l142 -375l-160 -21zM289 309q-1 -155 155 -155q66 0 138.5 33.5t134.5 74.5v256l-180 -16q-137 -14 -192.5 -57.5t-55.5 -135.5z" />
<glyph unicode="&#xe1;" horiz-adv-x="1064" d="M68 289q0 160 99 243.5t310 100.5l240 18v68q0 68 -11.5 113t-39 72.5t-75.5 38.5t-120 11q-63 0 -147 -10t-166 -26l-17 163q195 39 369 39q219 0 322.5 -87t103.5 -273v-760h-180l-21 137h-14q-84 -68 -174.5 -107.5t-186.5 -39.5q-141 0 -216.5 78.5t-75.5 220.5z M289 309q-1 -155 155 -155q66 0 138.5 33.5t134.5 74.5v256l-180 -16q-137 -14 -192.5 -57.5t-55.5 -135.5zM457 1264l143 378h225l-211 -395z" />
<glyph unicode="&#xe2;" horiz-adv-x="1064" d="M68 289q0 160 99 243.5t310 100.5l240 18v68q0 68 -11.5 113t-39 72.5t-75.5 38.5t-120 11q-63 0 -147 -10t-166 -26l-17 163q195 39 369 39q219 0 322.5 -87t103.5 -273v-760h-180l-21 137h-14q-84 -68 -174.5 -107.5t-186.5 -39.5q-141 0 -216.5 78.5t-75.5 220.5z M209 1282v164l334 151l338 -151v-164l-336 150zM289 309q-1 -155 155 -155q66 0 138.5 33.5t134.5 74.5v256l-180 -16q-137 -14 -192.5 -57.5t-55.5 -135.5z" />
<glyph unicode="&#xe3;" horiz-adv-x="1064" d="M68 289q0 160 99 243.5t310 100.5l240 18v68q0 68 -11.5 113t-39 72.5t-75.5 38.5t-120 11q-63 0 -147 -10t-166 -26l-17 163q195 39 369 39q219 0 322.5 -87t103.5 -273v-760h-180l-21 137h-14q-84 -68 -174.5 -107.5t-186.5 -39.5q-141 0 -216.5 78.5t-75.5 220.5z M139 1368q53 84 123 128t135 44q47 0 88 -14.5t81 -31.5t80 -31.5t83 -14.5q84 0 164 80l55 -60q-51 -86 -121.5 -130t-140.5 -44q-45 0 -86 14.5t-82 32t-81 31.5t-83 14q-80 0 -161 -77zM289 309q-1 -155 155 -155q66 0 138.5 33.5t134.5 74.5v256l-180 -16 q-137 -14 -192.5 -57.5t-55.5 -135.5z" />
<glyph unicode="&#xe4;" horiz-adv-x="1064" d="M68 289q0 160 99 243.5t310 100.5l240 18v68q0 68 -11.5 113t-39 72.5t-75.5 38.5t-120 11q-63 0 -147 -10t-166 -26l-17 163q195 39 369 39q219 0 322.5 -87t103.5 -273v-760h-180l-21 137h-14q-84 -68 -174.5 -107.5t-186.5 -39.5q-141 0 -216.5 78.5t-75.5 220.5z M184 1421q0 115 121 115t121 -115q0 -118 -121 -118t-121 118zM289 309q-1 -155 155 -155q66 0 138.5 33.5t134.5 74.5v256l-180 -16q-137 -14 -192.5 -57.5t-55.5 -135.5zM655 1421q0 115 121 115q119 0 119 -115q0 -118 -119 -118q-121 0 -121 118z" />
<glyph unicode="&#xe5;" horiz-adv-x="1064" d="M68 289q0 160 99 243.5t310 100.5l240 18v68q0 68 -11.5 113t-39 72.5t-75.5 38.5t-120 11q-63 0 -147 -10t-166 -26l-17 163q195 39 369 39q219 0 322.5 -87t103.5 -273v-760h-180l-21 137h-14q-84 -68 -174.5 -107.5t-186.5 -39.5q-141 0 -216.5 78.5t-75.5 220.5z M289 309q-1 -155 155 -155q66 0 138.5 33.5t134.5 74.5v256l-180 -16q-137 -14 -192.5 -57.5t-55.5 -135.5zM295 1452q0 98 65.5 160.5t176.5 62.5q109 0 175 -62.5t66 -160.5t-66 -160.5t-175 -62.5t-175.5 62.5t-66.5 160.5zM406 1452q0 -59 32.5 -92t98.5 -33t97.5 34 t31.5 91t-32 91t-97 34q-66 0 -98.5 -34t-32.5 -91z" />
<glyph unicode="&#xe6;" horiz-adv-x="1714" d="M70 289q0 160 98 242.5t309 99.5l242 18v90q-2 119 -57.5 167t-194.5 48q-63 0 -146 -10t-161 -26l-19 163q104 20 195.5 29.5t175.5 9.5q262 0 334 -178h12q57 88 147.5 134t213.5 46q205 0 309 -124t104 -365q0 -53 -3 -88t-9 -64h-680q6 -170 79 -249.5t224 -79.5 q76 0 164 14t176 43l10 -166q-82 -29 -179 -46t-189 -17q-274 0 -394 190h-12q-150 -96 -255 -138t-204 -42q-141 0 -215.5 78.5t-74.5 220.5zM291 309q-1 -157 155 -157q59 0 130 31.5t155 86.5q-4 8 -6 44t-3 77t-2 78t-1 51l-182 -16q-137 -12 -191.5 -57.5t-54.5 -137.5 zM938 614h496q-4 184 -55.5 263t-166.5 79q-256 0 -274 -342z" />
<glyph unicode="&#xe7;" horiz-adv-x="933" d="M84 553q0 571 516 571q61 0 128 -7t126 -21v-181q-119 27 -231 27q-166 0 -242 -93t-76 -296q0 -205 74 -297t239 -92q63 0 118 5t118 19v-176q-45 -12 -105.5 -20t-119.5 -10q41 -63 55 -110.5t14 -96.5q0 -106 -62 -166t-179 -60q-39 0 -85 7.5t-91 17.5v141 q31 -10 67.5 -16t69.5 -6q66 0 95.5 26.5t29.5 79.5q0 41 -16.5 87t-55.5 106q-387 63 -387 561z" />
<glyph unicode="&#xe8;" horiz-adv-x="1077" d="M86 539q0 287 126 436t368 149q416 0 415 -493q0 -49 -3 -85t-9 -67h-678q10 -174 81 -249.5t222 -75.5q76 0 164 14t172 43l10 -166q-78 -29 -176 -46t-190 -17q-248 0 -375 141t-127 416zM256 1649h231l142 -375l-160 -21zM305 623h492q-4 182 -55.5 260t-168.5 78 q-127 0 -192.5 -82t-75.5 -256z" />
<glyph unicode="&#xe9;" horiz-adv-x="1077" d="M86 539q0 287 126 436t368 149q416 0 415 -493q0 -49 -3 -85t-9 -67h-678q10 -174 81 -249.5t222 -75.5q76 0 164 14t172 43l10 -166q-78 -29 -176 -46t-190 -17q-248 0 -375 141t-127 416zM305 623h492q-4 182 -55.5 260t-168.5 78q-127 0 -192.5 -82t-75.5 -256z M492 1264l143 378h225l-211 -395z" />
<glyph unicode="&#xea;" horiz-adv-x="1077" d="M86 539q0 287 126 436t368 149q416 0 415 -493q0 -49 -3 -85t-9 -67h-678q10 -174 81 -249.5t222 -75.5q76 0 164 14t172 43l10 -166q-78 -29 -176 -46t-190 -17q-248 0 -375 141t-127 416zM227 1282v164l334 151l338 -151v-164l-336 150zM305 623h492q-4 182 -55.5 260 t-168.5 78q-127 0 -192.5 -82t-75.5 -256z" />
<glyph unicode="&#xeb;" horiz-adv-x="1077" d="M86 539q0 287 126 436t368 149q416 0 415 -493q0 -49 -3 -85t-9 -67h-678q10 -174 81 -249.5t222 -75.5q76 0 164 14t172 43l10 -166q-78 -29 -176 -46t-190 -17q-248 0 -375 141t-127 416zM201 1421q0 115 121 115t120 -115q1 -118 -120 -118t-121 118zM305 623h492 q-4 182 -55.5 260t-168.5 78q-127 0 -192.5 -82t-75.5 -256zM672 1421q0 115 121 115q119 0 118 -115q1 -118 -118 -118q-121 0 -121 118z" />
<glyph unicode="&#xec;" horiz-adv-x="495" d="M-47 1649h231l142 -375l-160 -21zM139 0v1106h217v-1106h-217z" />
<glyph unicode="&#xed;" horiz-adv-x="495" d="M139 0v1106h217v-1106h-217zM174 1264l143 378h226l-211 -395z" />
<glyph unicode="&#xee;" horiz-adv-x="497" d="M-70 1282v164l326 151l328 -151v-164l-326 150zM141 0v1106h217v-1106h-217z" />
<glyph unicode="&#xef;" horiz-adv-x="497" d="M-92 1421q0 115 121 115q119 0 118 -115q1 -118 -118 -118q-121 0 -121 118zM141 0v1106h217v-1106h-217zM358 1421q0 115 121 115q119 0 119 -115q0 -118 -119 -118q-121 0 -121 118z" />
<glyph unicode="&#xf0;" horiz-adv-x="1191" d="M84 551q0 281 128 428t363 147q92 0 157 -31.5t112 -101.5q-39 156 -111 305l-313 -34v145l239 27q-35 57 -74.5 111.5t-84.5 107.5h225q33 -43 65.5 -92.5t63.5 -104.5l285 33v-145l-213 -25q72 -154 118 -336t46 -393q0 -301 -128 -456.5t-376 -155.5q-244 0 -373 146 t-129 425zM305 553q0 -213 66.5 -306t216.5 -93q147 0 214.5 97t67.5 316q0 82 -15 153t-49 122t-88 79.5t-132 28.5q-150 0 -215.5 -93t-65.5 -304z" />
<glyph unicode="&#xf1;" d="M137 0v1106h185l14 -125h10q72 39 132.5 66.5t111.5 45t97 25.5t91 8q135 0 206 -73.5t71 -227.5v-825h-217v756q0 102 -37 144t-115 42q-68 0 -152.5 -27.5t-177.5 -76.5v-838h-219zM205 1368q53 84 122.5 128t135.5 44q47 0 88 -14.5t81 -31.5t80 -31.5t83 -14.5 q84 0 163 80l56 -60q-51 -86 -122 -130t-140 -44q-45 0 -86 14.5t-82 32t-81 31.5t-83 14q-80 0 -162 -77z" />
<glyph unicode="&#xf2;" horiz-adv-x="1173" d="M84 553q0 281 128 427t376 146q246 0 374 -146t128 -427t-128 -427t-374 -146q-248 0 -376 146t-128 427zM279 1649h231l141 -375l-159 -21zM305 553q0 -213 66.5 -306t216.5 -93t216 93t66 306t-67.5 305t-214.5 92q-150 0 -216.5 -92t-66.5 -305z" />
<glyph unicode="&#xf3;" horiz-adv-x="1173" d="M84 553q0 281 128 427t376 146q246 0 374 -146t128 -427t-128 -427t-374 -146q-248 0 -376 146t-128 427zM305 553q0 -213 66.5 -306t216.5 -93t216 93t66 306t-67.5 305t-214.5 92q-150 0 -216.5 -92t-66.5 -305zM496 1264l143 378h225l-211 -395z" />
<glyph unicode="&#xf4;" horiz-adv-x="1173" d="M84 553q0 281 128 427t376 146q246 0 374 -146t128 -427t-128 -427t-374 -146q-248 0 -376 146t-128 427zM248 1282v164l334 151l338 -151v-164l-336 150zM305 553q0 -213 66.5 -306t216.5 -93t216 93t66 306t-67.5 305t-214.5 92q-150 0 -216.5 -92t-66.5 -305z" />
<glyph unicode="&#xf5;" horiz-adv-x="1173" d="M84 553q0 281 128 427t376 146q246 0 374 -146t128 -427t-128 -427t-374 -146q-248 0 -376 146t-128 427zM182 1368q53 84 123 128t135 44q47 0 88 -14.5t81 -31.5t80 -31.5t83 -14.5q84 0 164 80l55 -60q-51 -86 -121.5 -130t-140.5 -44q-45 0 -86 14.5t-82 32t-81 31.5 t-83 14q-80 0 -161 -77zM305 553q0 -213 66.5 -306t216.5 -93t216 93t66 306t-67.5 305t-214.5 92q-150 0 -216.5 -92t-66.5 -305z" />
<glyph unicode="&#xf6;" horiz-adv-x="1173" d="M84 553q0 281 128 427t376 146q246 0 374 -146t128 -427t-128 -427t-374 -146q-248 0 -376 146t-128 427zM223 1421q0 115 121 115t121 -115q0 -118 -121 -118t-121 118zM305 553q0 -213 66.5 -306t216.5 -93t216 93t66 306t-67.5 305t-214.5 92q-150 0 -216.5 -92 t-66.5 -305zM694 1421q0 115 121 115q119 0 119 -115q0 -118 -119 -118q-121 0 -121 118z" />
<glyph unicode="&#xf7;" horiz-adv-x="1056" d="M111 680v156h837v-156h-837zM426 414q0 53 30.5 80.5t78.5 27.5q47 0 77.5 -27.5t30.5 -80.5t-30.5 -81t-77.5 -28t-78 27.5t-31 81.5zM426 1092q0 53 30.5 81.5t78.5 28.5q47 0 77.5 -28.5t30.5 -81.5t-30.5 -81t-77.5 -28t-78 27.5t-31 81.5z" />
<glyph unicode="&#xf8;" d="M39 0l145 170q-94 143 -94 383q0 276 126 424.5t378 148.5q199 0 319 -96l66 76h166l-144 -170q96 -143 97 -383q0 -279 -127 -426t-377 -147q-205 0 -324 98l-65 -78h-166zM311 553q0 -127 21 -209l456 539q-68 68 -194 67q-158 0 -220.5 -94t-62.5 -303zM393 223 q68 -69 201 -69q156 0 219.5 95t63.5 304q0 121 -23 211z" />
<glyph unicode="&#xf9;" d="M129 281v825h219v-760q0 -100 34 -141t116 -41q78 0 160.5 31.5t170.5 78.5v832h220v-1106h-185l-14 127h-8q-74 -39 -129.5 -66.5t-104.5 -46t-95 -26.5t-101 -8q-141 0 -212 76.5t-71 224.5zM287 1649h231l141 -375l-159 -21z" />
<glyph unicode="&#xfa;" d="M129 281v825h219v-760q0 -100 34 -141t116 -41q78 0 160.5 31.5t170.5 78.5v832h220v-1106h-185l-14 127h-8q-74 -39 -129.5 -66.5t-104.5 -46t-95 -26.5t-101 -8q-141 0 -212 76.5t-71 224.5zM502 1264l143 378h225l-211 -395z" />
<glyph unicode="&#xfb;" d="M129 281v825h219v-760q0 -100 34 -141t116 -41q78 0 160.5 31.5t170.5 78.5v832h220v-1106h-185l-14 127h-8q-74 -39 -129.5 -66.5t-104.5 -46t-95 -26.5t-101 -8q-141 0 -212 76.5t-71 224.5zM258 1282v164l334 151l338 -151v-164l-336 150z" />
<glyph unicode="&#xfc;" d="M129 281v825h219v-760q0 -100 34 -141t116 -41q78 0 160.5 31.5t170.5 78.5v832h220v-1106h-185l-14 127h-8q-74 -39 -129.5 -66.5t-104.5 -46t-95 -26.5t-101 -8q-141 0 -212 76.5t-71 224.5zM231 1421q0 115 121 115t121 -115q0 -118 -121 -118t-121 118zM702 1421 q0 115 121 115q119 0 119 -115q0 -118 -119 -118q-121 0 -121 118z" />
<glyph unicode="&#xfd;" horiz-adv-x="1126" d="M23 1083v23h231l258 -715l43 -158h14l45 158l265 715h225v-23l-600 -1534l-207 37l-2 19l156 403zM489 1264l144 378h225l-211 -395z" />
<glyph unicode="&#xfe;" d="M137 -451v2106h219v-660q57 59 139.5 94t190.5 35q209 0 312.5 -136t103.5 -417q0 -293 -138.5 -442t-412.5 -149q-43 0 -95.5 6t-99.5 12v-449h-219zM356 162q49 -12 102.5 -19.5t94.5 -7.5q86 0 147.5 20.5t101.5 68.5t58.5 128t18.5 199q0 117 -15.5 195.5t-47.5 127 t-81 69t-117 20.5q-125 0 -193.5 -78t-68.5 -238v-485z" />
<glyph unicode="&#xff;" horiz-adv-x="1126" d="M23 1083v23h231l258 -715l43 -158h14l45 158l265 715h225v-23l-600 -1534l-207 37l-2 19l156 403zM211 1421q0 115 121 115t121 -115q0 -118 -121 -118t-121 118zM682 1421q0 115 121 115q119 0 119 -115q0 -118 -119 -118q-121 0 -121 118z" />
<glyph unicode="&#x152;" horiz-adv-x="1955" d="M90 756q0 385 168 579.5t485 194.5q59 0 112.5 -3t100.5 -11h889v-185h-669v-471h618v-180h-618v-496h688v-184h-908q-47 -8 -102.5 -11t-110.5 -3q-317 0 -485 193.5t-168 576.5zM317 756q0 -154 26 -264.5t79 -181t136 -104.5t198 -34q53 0 104 2t94 12v1141 q-45 10 -96 13t-104 3q-227 0 -332 -140t-105 -447z" />
<glyph unicode="&#x153;" horiz-adv-x="1863" d="M84 553q0 281 128 427t376 146q141 0 238.5 -59t146.5 -170h14q51 111 147.5 169t235.5 58q205 0 308.5 -123.5t103.5 -365.5q0 -49 -2 -84t-11 -68h-677q6 -172 79.5 -250.5t221.5 -78.5q76 0 164 14t176 43l10 -166q-80 -29 -177.5 -46t-189.5 -17q-143 0 -241.5 57 t-149.5 164h-12q-53 -109 -149.5 -166t-235.5 -57q-248 0 -376 146t-128 427zM305 553q0 -213 66.5 -306t216.5 -93t216 93t66 306t-67.5 305t-214.5 92q-150 0 -216.5 -92t-66.5 -305zM1090 616h495q-6 184 -58 264.5t-165 80.5q-254 0 -272 -345z" />
<glyph unicode="&#x178;" horiz-adv-x="1286" d="M-2 1516h244l338 -670l53 -131h18l54 131l339 670h242l-530 -1006v-510h-224v504zM260 1794q0 68 33 98.5t98 30.5q66 0 99.5 -30.5t33.5 -98.5q0 -131 -133 -131q-131 0 -131 131zM766 1794q0 68 32.5 98.5t100.5 30.5q66 0 99.5 -30.5t33.5 -98.5q0 -131 -133 -131 t-133 131z" />
<glyph unicode="&#x2c6;" horiz-adv-x="876" d="M94 1282v164l334 151l338 -151v-164l-336 150z" />
<glyph unicode="&#x2dc;" horiz-adv-x="970" d="M68 1368q53 84 122.5 128t135.5 44q47 0 88 -14.5t81 -31.5t79.5 -31.5t82.5 -14.5q84 0 164 80l56 -60q-51 -86 -122 -130t-141 -44q-45 0 -86 14.5t-81.5 32t-80.5 31.5t-83 14q-80 0 -162 -77z" />
<glyph unicode="&#x2000;" horiz-adv-x="1004" />
<glyph unicode="&#x2001;" horiz-adv-x="2009" />
<glyph unicode="&#x2002;" horiz-adv-x="1004" />
<glyph unicode="&#x2003;" horiz-adv-x="2009" />
<glyph unicode="&#x2004;" horiz-adv-x="669" />
<glyph unicode="&#x2005;" horiz-adv-x="502" />
<glyph unicode="&#x2006;" horiz-adv-x="334" />
<glyph unicode="&#x2007;" horiz-adv-x="334" />
<glyph unicode="&#x2008;" horiz-adv-x="251" />
<glyph unicode="&#x2009;" horiz-adv-x="401" />
<glyph unicode="&#x200a;" horiz-adv-x="111" />
<glyph unicode="&#x2010;" horiz-adv-x="888" d="M123 487v172h643v-172h-643z" />
<glyph unicode="&#x2011;" horiz-adv-x="888" d="M123 487v172h643v-172h-643z" />
<glyph unicode="&#x2012;" horiz-adv-x="888" d="M123 487v172h643v-172h-643z" />
<glyph unicode="&#x2013;" horiz-adv-x="1206" d="M127 487v172h950v-172h-950z" />
<glyph unicode="&#x2014;" horiz-adv-x="1556" d="M127 487v172h1300v-172h-1300z" />
<glyph unicode="&#x2018;" horiz-adv-x="423" d="M98 1241q0 104 34 218t93 200l113 -12q-31 -76 -49.5 -168.5t-18.5 -180.5q0 -57 10.5 -113.5t32.5 -117.5l-186 -16q-14 41 -21.5 88t-7.5 102z" />
<glyph unicode="&#x2019;" horiz-adv-x="421" d="M90 1065q33 76 51.5 168t18.5 180q0 109 -43 229l186 17q29 -82 29 -189q0 -104 -35 -217.5t-94 -201.5z" />
<glyph unicode="&#x201a;" horiz-adv-x="436" d="M74 -283q33 76 51 168t18 181q0 109 -43 229l187 16q29 -82 28 -188q0 -104 -34.5 -218t-94.5 -202z" />
<glyph unicode="&#x201c;" horiz-adv-x="864" d="M98 1241q0 104 34 218t93 200l113 -12q-31 -76 -49.5 -168.5t-18.5 -180.5q0 -57 10.5 -113.5t32.5 -117.5l-186 -16q-14 41 -21.5 88t-7.5 102zM539 1241q0 104 33.5 218t93.5 200l112 -12q-31 -76 -49 -168.5t-18 -180.5q0 -57 10 -113.5t33 -117.5l-187 -16 q-14 41 -21 88t-7 102z" />
<glyph unicode="&#x201d;" horiz-adv-x="860" d="M90 1065q33 76 51.5 168t18.5 180q0 109 -43 229l186 17q29 -82 29 -189q0 -104 -35 -217.5t-94 -201.5zM530 1065q33 76 51.5 168t18.5 180q0 109 -43 229l186 17q29 -82 29 -189q0 -104 -35 -217.5t-94 -201.5z" />
<glyph unicode="&#x201e;" horiz-adv-x="876" d="M74 -283q33 76 51 168t18 181q0 109 -43 229l187 16q29 -82 28 -188q0 -104 -34.5 -218t-94.5 -202zM512 -283q33 76 51.5 168t18.5 181q0 109 -43 229l186 16q29 -82 29 -188q0 -104 -35 -218t-94 -202z" />
<glyph unicode="&#x2022;" horiz-adv-x="673" d="M150 758q0 98 53 141t135 43q78 0 131 -43t53 -141t-53 -140.5t-131 -42.5q-82 0 -135 42t-53 141z" />
<glyph unicode="&#x2026;" horiz-adv-x="1439" d="M109 119q0 129 131 129q66 0 101.5 -32t35.5 -97q0 -127 -137 -127q-131 0 -131 127zM594 119q0 129 131 129q66 0 101.5 -32t35.5 -97q0 -127 -137 -127q-131 0 -131 127zM1065 119q0 129 131 129q66 0 101.5 -32t35.5 -97q0 -127 -137 -127q-131 0 -131 127z" />
<glyph unicode="&#x202f;" horiz-adv-x="401" />
<glyph unicode="&#x2039;" horiz-adv-x="679" d="M66 549v8l309 487h227l-309 -487v-8l309 -488h-227z" />
<glyph unicode="&#x203a;" horiz-adv-x="679" d="M82 61l309 488v8l-309 487h223l309 -487v-8l-309 -488h-223z" />
<glyph unicode="&#x205f;" horiz-adv-x="502" />
<glyph unicode="&#x20ac;" horiz-adv-x="1251" d="M80 516v137h160q-2 25 -2 49.5v53.5v52.5t2 51.5h-160v137h174q45 276 215 406.5t481 130.5q74 0 127 -6t94 -15l-57 -182q-25 4 -58.5 7t-68.5 3q-119 0 -207 -18t-148.5 -58t-97 -106.5t-53.5 -161.5h535l-39 -137h-512q-2 -25 -2 -50.5v-53.5v-54.5t2 -48.5h479 l-39 -137h-424q18 -94 55 -159.5t96.5 -107.5t145.5 -60.5t203 -18.5q80 0 170 18v-190q-68 -18 -193 -18q-315 4 -485 133t-217 403h-176z" />
<glyph unicode="&#x2122;" horiz-adv-x="1843" d="M61 1386v130h670v-130h-260v-731h-152v731h-258zM834 655v861h192l242 -623l241 623h193v-861h-141v629l-230 -592h-127l-229 590v-627h-141z" />
<glyph unicode="&#x25fc;" horiz-adv-x="1105" d="M0 0v1106h1106v-1106h-1106z" />
</font>
</defs>
</svg>
